<svg xmlns="http://www.w3.org/2000/svg" xmlns:xlink="http://www.w3.org/1999/xlink" width="500" zoomAndPan="magnify" viewBox="0 0 375 374.999991" height="500" preserveAspectRatio="xMidYMid meet" version="1.0"><defs><filter x="0%" y="0%" width="100%" height="100%" id="5707741203"><feColorMatrix values="0 0 0 0 1 0 0 0 0 1 0 0 0 0 1 0 0 0 1 0" color-interpolation-filters="sRGB"/></filter><g/><clipPath id="1f414488b8"><path d="M 179 8.082031 L 197 8.082031 L 197 67 L 179 67 Z M 179 8.082031 " clip-rule="nonzero"/></clipPath><clipPath id="02bde72a69"><path d="M 49.859375 153 L 109 153 L 109 179 L 49.859375 179 Z M 49.859375 153 " clip-rule="nonzero"/></clipPath><clipPath id="e833692000"><path d="M 266 116 L 325.109375 116 L 325.109375 142 L 266 142 Z M 266 116 " clip-rule="nonzero"/></clipPath><mask id="432a2ffc61"><g filter="url(#5707741203)"><rect x="-37.5" width="450" fill="#000000" y="-37.499999" height="449.999989" fill-opacity="0.75"/></g></mask><clipPath id="8b3b238238"><path d="M 1 1 L 45.679688 1 L 45.679688 51 L 1 51 Z M 1 1 " clip-rule="nonzero"/></clipPath><clipPath id="8485008b0e"><rect x="0" width="46" y="0" height="52"/></clipPath><mask id="eecb2123af"><g filter="url(#5707741203)"><rect x="-37.5" width="450" fill="#000000" y="-37.499999" height="449.999989" fill-opacity="0.75"/></g></mask><clipPath id="898ee19ff2"><path d="M 0.519531 0.238281 L 54.519531 0.238281 L 54.519531 39 L 0.519531 39 Z M 0.519531 0.238281 " clip-rule="nonzero"/></clipPath><clipPath id="beeafd6b8b"><rect x="0" width="55" y="0" height="40"/></clipPath><clipPath id="1309c030dd"><path d="M 49.859375 114 L 110 114 L 110 141 L 49.859375 141 Z M 49.859375 114 " clip-rule="nonzero"/></clipPath><mask id="3da06aa72a"><g filter="url(#5707741203)"><rect x="-37.5" width="450" fill="#000000" y="-37.499999" height="449.999989" fill-opacity="0.6"/></g></mask><clipPath id="a3aa18f389"><path d="M 1 1 L 60 1 L 60 26.398438 L 1 26.398438 Z M 1 1 " clip-rule="nonzero"/></clipPath><clipPath id="729d37a062"><rect x="0" width="61" y="0" height="27"/></clipPath><clipPath id="f694fcb9fe"><path d="M 49.859375 153 L 109 153 L 109 179 L 49.859375 179 Z M 49.859375 153 " clip-rule="nonzero"/></clipPath><mask id="8e0e5e4d13"><g filter="url(#5707741203)"><rect x="-37.5" width="450" fill="#000000" y="-37.499999" height="449.999989" fill-opacity="0.6"/></g></mask><clipPath id="e568d3908e"><path d="M 0.859375 0.601562 L 59.238281 0.601562 L 59.238281 25.558594 L 0.859375 25.558594 Z M 0.859375 0.601562 " clip-rule="nonzero"/></clipPath><clipPath id="bbff92625d"><rect x="0" width="60" y="0" height="26"/></clipPath><mask id="afc8c92106"><g filter="url(#5707741203)"><rect x="-37.5" width="450" fill="#000000" y="-37.499999" height="449.999989" fill-opacity="0.5"/></g></mask><clipPath id="0222c647d8"><path d="M 1 1 L 54.800781 1 L 54.800781 39.761719 L 1 39.761719 Z M 1 1 " clip-rule="nonzero"/></clipPath><clipPath id="1f8419d7c6"><rect x="0" width="55" y="0" height="40"/></clipPath><mask id="322b62fc1c"><g filter="url(#5707741203)"><rect x="-37.5" width="450" fill="#000000" y="-37.499999" height="449.999989" fill-opacity="0.5"/></g></mask><clipPath id="ff7cd84bc1"><path d="M 1 0.640625 L 45.960938 0.640625 L 45.960938 50 L 1 50 Z M 1 0.640625 " clip-rule="nonzero"/></clipPath><clipPath id="fa1483b50f"><rect x="0" width="46" y="0" height="51"/></clipPath><mask id="a0545f80ab"><g filter="url(#5707741203)"><rect x="-37.5" width="450" fill="#000000" y="-37.499999" height="449.999989" fill-opacity="0.4"/></g></mask><clipPath id="dfb3e3937b"><path d="M 1 0.238281 L 33.839844 0.238281 L 33.839844 57 L 1 57 Z M 1 0.238281 " clip-rule="nonzero"/></clipPath><clipPath id="3496eb43e8"><rect x="0" width="34" y="0" height="58"/></clipPath><mask id="2044238187"><g filter="url(#5707741203)"><rect x="-37.5" width="450" fill="#000000" y="-37.499999" height="449.999989" fill-opacity="0.4"/></g></mask><clipPath id="9d412b7ede"><path d="M 1 1 L 18.601562 1 L 18.601562 60 L 1 60 Z M 1 1 " clip-rule="nonzero"/></clipPath><clipPath id="506950677d"><rect x="0" width="19" y="0" height="61"/></clipPath><mask id="be30f4535e"><g filter="url(#5707741203)"><rect x="-37.5" width="450" fill="#000000" y="-37.499999" height="449.999989" fill-opacity="0.3"/></g></mask><clipPath id="502b1fc3cb"><path d="M 0.078125 0.238281 L 32.480469 0.238281 L 32.480469 58 L 0.078125 58 Z M 0.078125 0.238281 " clip-rule="nonzero"/></clipPath><clipPath id="acbb009b4f"><rect x="0" width="33" y="0" height="59"/></clipPath><mask id="928945457c"><g filter="url(#5707741203)"><rect x="-37.5" width="450" fill="#000000" y="-37.499999" height="449.999989" fill-opacity="0.3"/></g></mask><clipPath id="b2e8728a08"><path d="M 1 0.359375 L 46 0.359375 L 46 49.800781 L 1 49.800781 Z M 1 0.359375 " clip-rule="nonzero"/></clipPath><clipPath id="1fd6060e39"><rect x="0" width="47" y="0" height="50"/></clipPath><mask id="ee12d067e0"><g filter="url(#5707741203)"><rect x="-37.5" width="450" fill="#000000" y="-37.499999" height="449.999989" fill-opacity="0.3"/></g></mask><clipPath id="2ae224be1e"><path d="M 0.121094 0.359375 L 54.121094 0.359375 L 54.121094 39 L 0.121094 39 Z M 0.121094 0.359375 " clip-rule="nonzero"/></clipPath><clipPath id="9405400268"><rect x="0" width="55" y="0" height="40"/></clipPath><clipPath id="ee426be00e"><path d="M 266 154 L 325.109375 154 L 325.109375 180 L 266 180 Z M 266 154 " clip-rule="nonzero"/></clipPath><mask id="fa9de7ab11"><g filter="url(#5707741203)"><rect x="-37.5" width="450" fill="#000000" y="-37.499999" height="449.999989" fill-opacity="0.2"/></g></mask><clipPath id="aedf9be5ab"><path d="M 0.398438 0.320312 L 59 0.320312 L 59 26 L 0.398438 26 Z M 0.398438 0.320312 " clip-rule="nonzero"/></clipPath><clipPath id="45d9034998"><rect x="0" width="60" y="0" height="26"/></clipPath><clipPath id="5737cfdece"><path d="M 266 116 L 325.109375 116 L 325.109375 142 L 266 142 Z M 266 116 " clip-rule="nonzero"/></clipPath><mask id="daa5867ea6"><g filter="url(#5707741203)"><rect x="-37.5" width="450" fill="#000000" y="-37.499999" height="449.999989" fill-opacity="0.2"/></g></mask><clipPath id="7ecf6cf6bc"><path d="M 0.398438 0.160156 L 59.109375 0.160156 L 59.109375 25.839844 L 0.398438 25.839844 Z M 0.398438 0.160156 " clip-rule="nonzero"/></clipPath><clipPath id="838da147c0"><rect x="0" width="60" y="0" height="26"/></clipPath><mask id="d89d87c3d4"><g filter="url(#5707741203)"><rect x="-37.5" width="450" fill="#000000" y="-37.499999" height="449.999989" fill-opacity="0.9"/></g></mask><clipPath id="afc1767769"><path d="M 0.160156 0.359375 L 32.558594 0.359375 L 32.558594 57.480469 L 0.160156 57.480469 Z M 0.160156 0.359375 " clip-rule="nonzero"/></clipPath><clipPath id="f11a392002"><rect x="0" width="33" y="0" height="58"/></clipPath></defs><g clip-path="url(#1f414488b8)"><path fill="#352cab" d="M 188.054688 66.808594 C 183.292969 66.808594 179.425781 62.941406 179.425781 58.179688 L 179.425781 16.710938 C 179.425781 11.945312 183.292969 8.082031 188.054688 8.082031 C 192.820312 8.082031 196.6875 11.945312 196.6875 16.710938 L 196.6875 58.179688 C 196.6875 62.941406 192.820312 66.808594 188.054688 66.808594 Z M 188.054688 66.808594 " fill-opacity="1" fill-rule="nonzero"/></g><path fill="#352cab" d="M 157.476562 72.003906 C 153.953125 72.003906 150.644531 69.832031 149.371094 66.324219 L 135.1875 27.355469 C 133.558594 22.878906 135.867188 17.929688 140.347656 16.300781 C 144.820312 14.675781 149.773438 16.980469 151.402344 21.457031 L 165.582031 60.425781 C 167.214844 64.902344 164.90625 69.855469 160.425781 71.480469 C 159.453125 71.835938 158.453125 72.003906 157.476562 72.003906 Z M 157.476562 72.003906 " fill-opacity="1" fill-rule="nonzero"/><path fill="#352cab" d="M 130.527344 87.34375 C 128.058594 87.34375 125.617188 86.292969 123.90625 84.257812 L 97.253906 52.492188 C 94.191406 48.839844 94.667969 43.402344 98.320312 40.335938 C 101.96875 37.273438 107.417969 37.757812 110.480469 41.402344 L 137.132812 73.167969 C 140.195312 76.820312 139.714844 82.257812 136.066406 85.328125 C 134.453125 86.679688 132.480469 87.34375 130.527344 87.34375 Z M 130.527344 87.34375 " fill-opacity="1" fill-rule="nonzero"/><path fill="#352cab" d="M 110.429688 110.980469 C 108.960938 110.980469 107.480469 110.609375 106.121094 109.820312 L 70.207031 89.082031 C 66.078125 86.703125 64.667969 81.425781 67.050781 77.296875 C 69.429688 73.167969 74.710938 71.757812 78.835938 74.136719 L 114.75 94.875 C 118.878906 97.257812 120.289062 102.535156 117.90625 106.664062 C 116.3125 109.433594 113.40625 110.980469 110.429688 110.980469 Z M 110.429688 110.980469 " fill-opacity="1" fill-rule="nonzero"/><path fill="#352cab" d="M 99.652344 140.058594 C 99.152344 140.058594 98.648438 140.019531 98.140625 139.929688 L 57.308594 132.722656 C 52.617188 131.890625 49.484375 127.414062 50.308594 122.722656 C 51.140625 118.023438 55.660156 114.90625 60.308594 115.722656 L 101.140625 122.929688 C 105.832031 123.757812 108.96875 128.238281 108.144531 132.929688 C 107.402344 137.113281 103.761719 140.058594 99.652344 140.058594 Z M 99.652344 140.058594 " fill-opacity="1" fill-rule="nonzero"/><g clip-path="url(#02bde72a69)"><path fill="#352cab" d="M 58.601562 178.269531 C 54.492188 178.269531 50.851562 175.324219 50.109375 171.132812 C 49.285156 166.441406 52.417969 161.964844 57.117188 161.136719 L 97.957031 153.945312 C 102.613281 153.109375 107.121094 156.25 107.949219 160.953125 C 108.777344 165.644531 105.640625 170.121094 100.945312 170.949219 L 60.105469 178.140625 C 59.601562 178.230469 59.101562 178.269531 58.601562 178.269531 Z M 58.601562 178.269531 " fill-opacity="1" fill-rule="nonzero"/></g><path fill="#352cab" d="M 73.964844 221.011719 C 70.984375 221.011719 68.085938 219.46875 66.488281 216.699219 C 64.105469 212.570312 65.523438 207.285156 69.644531 204.914062 L 105.5625 184.191406 C 109.683594 181.804688 114.96875 183.21875 117.351562 187.351562 C 119.730469 191.476562 118.316406 196.761719 114.191406 199.136719 L 78.277344 219.855469 C 76.914062 220.644531 75.433594 221.011719 73.964844 221.011719 Z M 73.964844 221.011719 " fill-opacity="1" fill-rule="nonzero"/><path fill="#352cab" d="M 102.996094 255.929688 C 101.039062 255.929688 99.070312 255.265625 97.449219 253.90625 C 93.804688 250.84375 93.328125 245.402344 96.394531 241.75 L 123.058594 209.996094 C 126.121094 206.34375 131.566406 205.871094 135.214844 208.941406 C 138.863281 212.003906 139.339844 217.445312 136.273438 221.097656 L 109.609375 252.851562 C 107.90625 254.886719 105.457031 255.929688 102.996094 255.929688 Z M 102.996094 255.929688 " fill-opacity="1" fill-rule="nonzero"/><path fill="#352cab" d="M 142.238281 278.808594 C 141.257812 278.808594 140.261719 278.640625 139.285156 278.285156 C 134.804688 276.65625 132.496094 271.703125 134.132812 267.222656 L 148.324219 228.265625 C 149.953125 223.789062 154.90625 221.492188 159.386719 223.117188 C 163.863281 224.746094 166.171875 229.699219 164.539062 234.179688 L 150.347656 273.136719 C 149.070312 276.632812 145.761719 278.808594 142.238281 278.808594 Z M 142.238281 278.808594 " fill-opacity="1" fill-rule="nonzero"/><path fill="#352cab" d="M 186.933594 286.886719 C 182.164062 286.886719 178.304688 283.023438 178.304688 278.257812 L 178.316406 236.796875 C 178.316406 232.023438 182.179688 228.164062 186.945312 228.164062 C 191.714844 228.164062 195.574219 232.03125 195.574219 236.796875 L 195.5625 278.257812 C 195.5625 283.027344 191.695312 286.886719 186.933594 286.886719 Z M 186.933594 286.886719 " fill-opacity="1" fill-rule="nonzero"/><path fill="#352cab" d="M 231.695312 279.195312 C 228.164062 279.195312 224.855469 277.023438 223.582031 273.515625 L 209.410156 234.546875 C 207.785156 230.070312 210.097656 225.113281 214.574219 223.488281 C 219.058594 221.855469 224.007812 224.179688 225.636719 228.648438 L 239.804688 267.617188 C 241.429688 272.097656 239.121094 277.050781 234.644531 278.679688 C 233.671875 279.03125 232.671875 279.195312 231.695312 279.195312 Z M 231.695312 279.195312 " fill-opacity="1" fill-rule="nonzero"/><path fill="#352cab" d="M 271.128906 256.65625 C 268.660156 256.65625 266.21875 255.605469 264.511719 253.570312 L 237.867188 221.796875 C 234.804688 218.144531 235.285156 212.703125 238.9375 209.640625 C 242.59375 206.578125 248.035156 207.0625 251.09375 210.710938 L 277.738281 242.484375 C 280.800781 246.132812 280.324219 251.578125 276.667969 254.640625 C 275.050781 255.992188 273.085938 256.65625 271.128906 256.65625 Z M 271.128906 256.65625 " fill-opacity="1" fill-rule="nonzero"/><path fill="#352cab" d="M 300.460938 221.992188 C 298.996094 221.992188 297.511719 221.621094 296.152344 220.832031 L 260.246094 200.089844 C 256.117188 197.710938 254.703125 192.425781 257.085938 188.304688 C 259.480469 184.167969 264.75 182.757812 268.875 185.144531 L 304.78125 205.886719 C 308.910156 208.269531 310.320312 213.550781 307.9375 217.675781 C 306.339844 220.445312 303.441406 221.992188 300.460938 221.992188 Z M 300.460938 221.992188 " fill-opacity="1" fill-rule="nonzero"/><path fill="#352cab" d="M 316.191406 179.382812 C 315.691406 179.382812 315.1875 179.34375 314.683594 179.25 L 273.847656 172.039062 C 269.152344 171.207031 266.023438 166.730469 266.847656 162.035156 C 267.679688 157.339844 272.191406 154.222656 276.847656 155.035156 L 317.683594 162.25 C 322.378906 163.082031 325.507812 167.558594 324.683594 172.25 C 323.941406 176.4375 320.300781 179.382812 316.191406 179.382812 Z M 316.191406 179.382812 " fill-opacity="1" fill-rule="nonzero"/><g clip-path="url(#e833692000)"><path fill="#352cab" d="M 275.527344 141.15625 C 271.421875 141.15625 267.773438 138.210938 267.039062 134.019531 C 266.214844 129.328125 269.347656 124.851562 274.042969 124.023438 L 314.882812 116.839844 C 319.558594 116.023438 324.050781 119.140625 324.878906 123.84375 C 325.703125 128.535156 322.570312 133.011719 317.871094 133.839844 L 277.03125 141.023438 C 276.527344 141.117188 276.027344 141.15625 275.527344 141.15625 Z M 275.527344 141.15625 " fill-opacity="1" fill-rule="nonzero"/></g><path fill="#352cab" d="M 265.117188 111.945312 C 262.132812 111.945312 259.234375 110.402344 257.632812 107.625 C 255.257812 103.503906 256.671875 98.21875 260.800781 95.839844 L 296.722656 75.117188 C 300.832031 72.742188 306.121094 74.144531 308.511719 78.285156 C 310.886719 82.410156 309.46875 87.691406 305.34375 90.074219 L 269.417969 110.792969 C 268.066406 111.574219 266.582031 111.945312 265.117188 111.945312 Z M 265.117188 111.945312 " fill-opacity="1" fill-rule="nonzero"/><path fill="#352cab" d="M 245.320312 88.0625 C 243.363281 88.0625 241.390625 87.398438 239.773438 86.039062 C 236.125 82.976562 235.648438 77.53125 238.714844 73.882812 L 265.386719 42.128906 C 268.453125 38.476562 273.894531 38.003906 277.542969 41.070312 C 281.191406 44.132812 281.667969 49.578125 278.601562 53.230469 L 251.929688 84.984375 C 250.222656 87.015625 247.777344 88.0625 245.320312 88.0625 Z M 245.320312 88.0625 " fill-opacity="1" fill-rule="nonzero"/><path fill="#352cab" d="M 218.558594 72.386719 C 217.574219 72.386719 216.582031 72.21875 215.601562 71.867188 C 211.125 70.234375 208.816406 65.28125 210.453125 60.804688 L 224.65625 21.847656 C 226.289062 17.371094 231.238281 15.070312 235.71875 16.695312 C 240.195312 18.324219 242.503906 23.28125 240.867188 27.757812 L 226.664062 66.714844 C 225.390625 70.210938 222.082031 72.386719 218.558594 72.386719 Z M 218.558594 72.386719 " fill-opacity="1" fill-rule="nonzero"/><g mask="url(#432a2ffc61)"><g transform="matrix(1, 0, 0, 1, 94, 37)"><g clip-path="url(#8485008b0e)"><g clip-path="url(#8b3b238238)"><path fill="#ffffff" d="M 36.527344 50.34375 C 34.058594 50.34375 31.617188 49.292969 29.90625 47.257812 L 3.253906 15.492188 C 0.191406 11.839844 0.667969 6.402344 4.320312 3.335938 C 7.96875 0.273438 13.417969 0.757812 16.480469 4.402344 L 43.132812 36.167969 C 46.195312 39.820312 45.714844 45.257812 42.066406 48.328125 C 40.453125 49.679688 38.480469 50.34375 36.527344 50.34375 Z M 36.527344 50.34375 " fill-opacity="1" fill-rule="nonzero"/></g></g></g></g><g mask="url(#eecb2123af)"><g transform="matrix(1, 0, 0, 1, 65, 72)"><g clip-path="url(#beeafd6b8b)"><g clip-path="url(#898ee19ff2)"><path fill="#ffffff" d="M 45.429688 38.980469 C 43.960938 38.980469 42.480469 38.609375 41.121094 37.820312 L 5.207031 17.082031 C 1.078125 14.703125 -0.332031 9.425781 2.050781 5.296875 C 4.429688 1.167969 9.710938 -0.242188 13.835938 2.136719 L 49.75 22.875 C 53.878906 25.257812 55.289062 30.535156 52.90625 34.664062 C 51.3125 37.433594 48.40625 38.980469 45.429688 38.980469 Z M 45.429688 38.980469 " fill-opacity="1" fill-rule="nonzero"/></g></g></g></g><g clip-path="url(#1309c030dd)"><g mask="url(#3da06aa72a)"><g transform="matrix(1, 0, 0, 1, 49, 114)"><g clip-path="url(#729d37a062)"><g clip-path="url(#a3aa18f389)"><path fill="#ffffff" d="M 50.652344 26.058594 C 50.152344 26.058594 49.648438 26.019531 49.140625 25.929688 L 8.308594 18.722656 C 3.617188 17.890625 0.484375 13.414062 1.308594 8.722656 C 2.140625 4.023438 6.660156 0.90625 11.308594 1.722656 L 52.140625 8.929688 C 56.832031 9.757812 59.96875 14.238281 59.144531 18.929688 C 58.402344 23.113281 54.761719 26.058594 50.652344 26.058594 Z M 50.652344 26.058594 " fill-opacity="1" fill-rule="nonzero"/></g></g></g></g></g><g clip-path="url(#f694fcb9fe)"><g mask="url(#8e0e5e4d13)"><g transform="matrix(1, 0, 0, 1, 49, 153)"><g clip-path="url(#bbff92625d)"><g clip-path="url(#e568d3908e)"><path fill="#ffffff" d="M 9.601562 25.269531 C 5.492188 25.269531 1.851562 22.324219 1.109375 18.132812 C 0.285156 13.441406 3.417969 8.964844 8.117188 8.136719 L 48.957031 0.945312 C 53.613281 0.109375 58.121094 3.25 58.949219 7.953125 C 59.777344 12.644531 56.640625 17.121094 51.945312 17.949219 L 11.105469 25.140625 C 10.601562 25.230469 10.101562 25.269531 9.601562 25.269531 Z M 9.601562 25.269531 " fill-opacity="1" fill-rule="nonzero"/></g></g></g></g></g><g mask="url(#afc8c92106)"><g transform="matrix(1, 0, 0, 1, 64, 182)"><g clip-path="url(#1f8419d7c6)"><g clip-path="url(#0222c647d8)"><path fill="#ffffff" d="M 9.964844 39.011719 C 6.984375 39.011719 4.085938 37.46875 2.488281 34.699219 C 0.105469 30.570312 1.523438 25.285156 5.644531 22.914062 L 41.5625 2.191406 C 45.683594 -0.195312 50.96875 1.21875 53.351562 5.351562 C 55.730469 9.476562 54.316406 14.761719 50.191406 17.136719 L 14.277344 37.855469 C 12.914062 38.644531 11.433594 39.011719 9.964844 39.011719 Z M 9.964844 39.011719 " fill-opacity="1" fill-rule="nonzero"/></g></g></g></g><g mask="url(#322b62fc1c)"><g transform="matrix(1, 0, 0, 1, 93, 206)"><g clip-path="url(#fa1483b50f)"><g clip-path="url(#ff7cd84bc1)"><path fill="#ffffff" d="M 9.996094 49.929688 C 8.039062 49.929688 6.070312 49.265625 4.449219 47.90625 C 0.804688 44.84375 0.328125 39.402344 3.394531 35.75 L 30.058594 3.996094 C 33.121094 0.34375 38.566406 -0.128906 42.214844 2.941406 C 45.863281 6.003906 46.339844 11.445312 43.273438 15.097656 L 16.609375 46.851562 C 14.90625 48.886719 12.457031 49.929688 9.996094 49.929688 Z M 9.996094 49.929688 " fill-opacity="1" fill-rule="nonzero"/></g></g></g></g><g mask="url(#a0545f80ab)"><g transform="matrix(1, 0, 0, 1, 132, 222)"><g clip-path="url(#3496eb43e8)"><g clip-path="url(#dfb3e3937b)"><path fill="#ffffff" d="M 10.238281 56.808594 C 9.257812 56.808594 8.261719 56.640625 7.285156 56.285156 C 2.804688 54.65625 0.496094 49.703125 2.132812 45.222656 L 16.324219 6.265625 C 17.953125 1.789062 22.90625 -0.507812 27.386719 1.117188 C 31.863281 2.746094 34.171875 7.699219 32.539062 12.179688 L 18.347656 51.136719 C 17.070312 54.632812 13.761719 56.808594 10.238281 56.808594 Z M 10.238281 56.808594 " fill-opacity="1" fill-rule="nonzero"/></g></g></g></g><g mask="url(#2044238187)"><g transform="matrix(1, 0, 0, 1, 177, 227)"><g clip-path="url(#506950677d)"><g clip-path="url(#9d412b7ede)"><path fill="#ffffff" d="M 9.933594 59.886719 C 5.164062 59.886719 1.304688 56.023438 1.304688 51.257812 L 1.316406 9.796875 C 1.316406 5.023438 5.179688 1.164062 9.945312 1.164062 C 14.714844 1.164062 18.574219 5.03125 18.574219 9.796875 L 18.5625 51.257812 C 18.5625 56.027344 14.695312 59.886719 9.933594 59.886719 Z M 9.933594 59.886719 " fill-opacity="1" fill-rule="nonzero"/></g></g></g></g><g mask="url(#be30f4535e)"><g transform="matrix(1, 0, 0, 1, 208, 222)"><g clip-path="url(#acbb009b4f)"><g clip-path="url(#502b1fc3cb)"><path fill="#ffffff" d="M 23.695312 57.195312 C 20.164062 57.195312 16.855469 55.023438 15.582031 51.515625 L 1.410156 12.546875 C -0.214844 8.070312 2.097656 3.113281 6.574219 1.488281 C 11.058594 -0.144531 16.007812 2.179688 17.636719 6.648438 L 31.804688 45.617188 C 33.429688 50.097656 31.121094 55.050781 26.644531 56.679688 C 25.671875 57.03125 24.671875 57.195312 23.695312 57.195312 Z M 23.695312 57.195312 " fill-opacity="1" fill-rule="nonzero"/></g></g></g></g><g mask="url(#928945457c)"><g transform="matrix(1, 0, 0, 1, 234, 207)"><g clip-path="url(#1fd6060e39)"><g clip-path="url(#b2e8728a08)"><path fill="#ffffff" d="M 37.128906 49.65625 C 34.660156 49.65625 32.21875 48.605469 30.511719 46.570312 L 3.867188 14.796875 C 0.804688 11.144531 1.285156 5.703125 4.9375 2.640625 C 8.59375 -0.421875 14.035156 0.0625 17.09375 3.710938 L 43.738281 35.484375 C 46.800781 39.132812 46.324219 44.578125 42.667969 47.640625 C 41.050781 48.992188 39.085938 49.65625 37.128906 49.65625 Z M 37.128906 49.65625 " fill-opacity="1" fill-rule="nonzero"/></g></g></g></g><g mask="url(#ee12d067e0)"><g transform="matrix(1, 0, 0, 1, 255, 183)"><g clip-path="url(#9405400268)"><g clip-path="url(#2ae224be1e)"><path fill="#ffffff" d="M 45.460938 38.992188 C 43.996094 38.992188 42.511719 38.621094 41.152344 37.832031 L 5.246094 17.089844 C 1.117188 14.710938 -0.296875 9.425781 2.085938 5.304688 C 4.480469 1.167969 9.75 -0.242188 13.875 2.144531 L 49.78125 22.886719 C 53.910156 25.269531 55.320312 30.550781 52.9375 34.675781 C 51.339844 37.445312 48.441406 38.992188 45.460938 38.992188 Z M 45.460938 38.992188 " fill-opacity="1" fill-rule="nonzero"/></g></g></g></g><g clip-path="url(#ee426be00e)"><g mask="url(#fa9de7ab11)"><g transform="matrix(1, 0, 0, 1, 266, 154)"><g clip-path="url(#45d9034998)"><g clip-path="url(#aedf9be5ab)"><path fill="#ffffff" d="M 50.191406 25.382812 C 49.691406 25.382812 49.1875 25.34375 48.683594 25.25 L 7.847656 18.039062 C 3.152344 17.207031 0.0234375 12.730469 0.847656 8.035156 C 1.679688 3.339844 6.191406 0.222656 10.847656 1.035156 L 51.683594 8.25 C 56.378906 9.082031 59.507812 13.558594 58.683594 18.25 C 57.941406 22.4375 54.300781 25.382812 50.191406 25.382812 Z M 50.191406 25.382812 " fill-opacity="1" fill-rule="nonzero"/></g></g></g></g></g><g clip-path="url(#5737cfdece)"><g mask="url(#daa5867ea6)"><g transform="matrix(1, 0, 0, 1, 266, 116)"><g clip-path="url(#838da147c0)"><g clip-path="url(#7ecf6cf6bc)"><path fill="#ffffff" d="M 9.527344 25.15625 C 5.421875 25.15625 1.773438 22.210938 1.039062 18.019531 C 0.214844 13.328125 3.347656 8.851562 8.042969 8.023438 L 48.882812 0.839844 C 53.558594 0.0234375 58.050781 3.140625 58.878906 7.84375 C 59.703125 12.535156 56.570312 17.011719 51.871094 17.839844 L 11.03125 25.023438 C 10.527344 25.117188 10.027344 25.15625 9.527344 25.15625 Z M 9.527344 25.15625 " fill-opacity="1" fill-rule="nonzero"/></g></g></g></g></g><g mask="url(#d89d87c3d4)"><g transform="matrix(1, 0, 0, 1, 134, 15)"><g clip-path="url(#f11a392002)"><g clip-path="url(#afc1767769)"><path fill="#ffffff" d="M 23.476562 57.003906 C 19.953125 57.003906 16.644531 54.832031 15.371094 51.324219 L 1.1875 12.355469 C -0.441406 7.878906 1.867188 2.929688 6.347656 1.300781 C 10.820312 -0.324219 15.773438 1.980469 17.402344 6.457031 L 31.582031 45.425781 C 33.214844 49.902344 30.90625 54.855469 26.425781 56.480469 C 25.453125 56.835938 24.453125 57.003906 23.476562 57.003906 Z M 23.476562 57.003906 " fill-opacity="1" fill-rule="nonzero"/></g></g></g></g><g fill="#c4c0bf" fill-opacity="1"><g transform="translate(95.875414, 351.642692)"><g><path d="M 8.25 -1.578125 L 11.859375 -1.015625 L 11.859375 0 L 0.921875 0 L 0.921875 -1.015625 L 4.515625 -1.578125 L 4.515625 -30.375 L 0.921875 -30.921875 L 0.921875 -31.921875 L 8.25 -31.921875 Z M 8.25 -1.578125 "/></g></g></g><g fill="#c4c0bf" fill-opacity="1"><g transform="translate(108.661119, 351.642692)"><g><path d="M 21.25 -10.671875 C 21.25 -3.253906 17.957031 0.453125 11.375 0.453125 C 8.195312 0.453125 5.796875 -0.492188 4.171875 -2.390625 C 2.554688 -4.296875 1.75 -7.054688 1.75 -10.671875 C 1.75 -14.234375 2.554688 -16.957031 4.171875 -18.84375 C 5.796875 -20.738281 8.253906 -21.6875 11.546875 -21.6875 C 14.753906 -21.6875 17.171875 -20.757812 18.796875 -18.90625 C 20.429688 -17.050781 21.25 -14.304688 21.25 -10.671875 Z M 17.203125 -10.671875 C 17.203125 -13.910156 16.726562 -16.253906 15.78125 -17.703125 C 14.84375 -19.160156 13.375 -19.890625 11.375 -19.890625 C 9.40625 -19.890625 7.984375 -19.191406 7.109375 -17.796875 C 6.234375 -16.398438 5.796875 -14.023438 5.796875 -10.671875 C 5.796875 -7.273438 6.238281 -4.867188 7.125 -3.453125 C 8.019531 -2.035156 9.4375 -1.328125 11.375 -1.328125 C 13.34375 -1.328125 14.804688 -2.0625 15.765625 -3.53125 C 16.722656 -5 17.203125 -7.378906 17.203125 -10.671875 Z M 17.203125 -10.671875 "/></g></g></g><g fill="#c4c0bf" fill-opacity="1"><g transform="translate(131.670883, 351.642692)"><g><path d="M 10.453125 -21.59375 C 12.753906 -21.59375 14.445312 -21.117188 15.53125 -20.171875 C 16.625 -19.234375 17.171875 -17.789062 17.171875 -15.84375 L 17.171875 -1.578125 L 19.796875 -1.015625 L 19.796875 0 L 14 0 L 13.578125 -2.109375 C 11.867188 -0.398438 9.6875 0.453125 7.03125 0.453125 C 3.425781 0.453125 1.625 -1.644531 1.625 -5.84375 C 1.625 -7.25 1.894531 -8.410156 2.4375 -9.328125 C 2.988281 -10.253906 3.863281 -10.957031 5.0625 -11.4375 C 6.257812 -11.925781 7.992188 -12.195312 10.265625 -12.25 L 13.4375 -12.328125 L 13.4375 -15.640625 C 13.4375 -17.085938 13.171875 -18.15625 12.640625 -18.84375 C 12.109375 -19.539062 11.285156 -19.890625 10.171875 -19.890625 C 8.679688 -19.890625 7.3125 -19.535156 6.0625 -18.828125 L 5.296875 -16.203125 L 4.046875 -16.203125 L 4.046875 -20.8125 C 6.472656 -21.332031 8.609375 -21.59375 10.453125 -21.59375 Z M 13.4375 -10.765625 L 10.5 -10.671875 C 8.488281 -10.597656 7.125 -10.207031 6.40625 -9.5 C 5.695312 -8.800781 5.34375 -7.628906 5.34375 -5.984375 C 5.34375 -3.335938 6.414062 -2.015625 8.5625 -2.015625 C 9.582031 -2.015625 10.460938 -2.128906 11.203125 -2.359375 C 11.941406 -2.597656 12.6875 -2.898438 13.4375 -3.265625 Z M 13.4375 -10.765625 "/></g></g></g><g fill="#c4c0bf" fill-opacity="1"><g transform="translate(152.096548, 351.642692)"><g><path d="M 16.25 -1.578125 C 14.550781 -0.222656 12.570312 0.453125 10.3125 0.453125 C 4.539062 0.453125 1.65625 -3.148438 1.65625 -10.359375 C 1.65625 -14.054688 2.472656 -16.867188 4.109375 -18.796875 C 5.742188 -20.722656 8.148438 -21.6875 11.328125 -21.6875 C 12.941406 -21.6875 14.582031 -21.515625 16.25 -21.171875 C 16.15625 -21.660156 16.109375 -22.898438 16.109375 -24.890625 L 16.109375 -30.375 L 12.5625 -30.921875 L 12.5625 -31.921875 L 19.84375 -31.921875 L 19.84375 -1.578125 L 22.453125 -1.015625 L 22.453125 0 L 16.515625 0 Z M 5.703125 -10.359375 C 5.703125 -7.515625 6.179688 -5.390625 7.140625 -3.984375 C 8.097656 -2.585938 9.566406 -1.890625 11.546875 -1.890625 C 13.242188 -1.890625 14.765625 -2.179688 16.109375 -2.765625 L 16.109375 -19.453125 C 14.773438 -19.710938 13.253906 -19.84375 11.546875 -19.84375 C 7.648438 -19.84375 5.703125 -16.679688 5.703125 -10.359375 Z M 5.703125 -10.359375 "/></g></g></g><g fill="#c4c0bf" fill-opacity="1"><g transform="translate(175.106313, 351.642692)"><g><path d="M 8.515625 -28.015625 C 8.515625 -27.359375 8.273438 -26.789062 7.796875 -26.3125 C 7.316406 -25.832031 6.738281 -25.59375 6.0625 -25.59375 C 5.40625 -25.59375 4.835938 -25.832031 4.359375 -26.3125 C 3.878906 -26.789062 3.640625 -27.359375 3.640625 -28.015625 C 3.640625 -28.691406 3.878906 -29.269531 4.359375 -29.75 C 4.835938 -30.226562 5.40625 -30.46875 6.0625 -30.46875 C 6.738281 -30.46875 7.316406 -30.226562 7.796875 -29.75 C 8.273438 -29.269531 8.515625 -28.691406 8.515625 -28.015625 Z M 8.296875 -1.578125 L 11.90625 -1.015625 L 11.90625 0 L 0.96875 0 L 0.96875 -1.015625 L 4.5625 -1.578125 L 4.5625 -19.546875 L 1.578125 -20.109375 L 1.578125 -21.125 L 8.296875 -21.125 Z M 8.296875 -1.578125 "/></g></g></g><g fill="#c4c0bf" fill-opacity="1"><g transform="translate(187.892017, 351.642692)"><g><path d="M 7.28125 -19.40625 C 8.4375 -20.070312 9.664062 -20.617188 10.96875 -21.046875 C 12.269531 -21.472656 13.351562 -21.6875 14.21875 -21.6875 C 16.050781 -21.6875 17.429688 -21.148438 18.359375 -20.078125 C 19.285156 -19.015625 19.75 -17.472656 19.75 -15.453125 L 19.75 -1.578125 L 22.3125 -1.015625 L 22.3125 0 L 13.21875 0 L 13.21875 -1.015625 L 16.015625 -1.578125 L 16.015625 -15.046875 C 16.015625 -16.296875 15.710938 -17.273438 15.109375 -17.984375 C 14.503906 -18.691406 13.566406 -19.046875 12.296875 -19.046875 C 10.941406 -19.046875 9.285156 -18.832031 7.328125 -18.40625 L 7.328125 -1.578125 L 10.171875 -1.015625 L 10.171875 0 L 1.0625 0 L 1.0625 -1.015625 L 3.59375 -1.578125 L 3.59375 -19.546875 L 1.0625 -20.109375 L 1.0625 -21.125 L 7.078125 -21.125 Z M 7.28125 -19.40625 "/></g></g></g><g fill="#c4c0bf" fill-opacity="1"><g transform="translate(210.901782, 351.642692)"><g><path d="M 19.546875 -14.453125 C 19.546875 -12.023438 18.816406 -10.1875 17.359375 -8.9375 C 15.910156 -7.695312 13.820312 -7.078125 11.09375 -7.078125 C 9.863281 -7.078125 8.726562 -7.191406 7.6875 -7.421875 L 6.265625 -4.46875 C 6.316406 -4.21875 6.609375 -3.976562 7.140625 -3.75 C 7.679688 -3.53125 8.359375 -3.421875 9.171875 -3.421875 L 15.40625 -3.421875 C 17.6875 -3.421875 19.375 -2.925781 20.46875 -1.9375 C 21.570312 -0.945312 22.125 0.414062 22.125 2.15625 C 22.125 3.726562 21.6875 5.097656 20.8125 6.265625 C 19.9375 7.429688 18.648438 8.332031 16.953125 8.96875 C 15.265625 9.613281 13.21875 9.9375 10.8125 9.9375 C 7.9375 9.9375 5.742188 9.492188 4.234375 8.609375 C 2.734375 7.722656 1.984375 6.460938 1.984375 4.828125 C 1.984375 4.035156 2.25 3.253906 2.78125 2.484375 C 3.320312 1.710938 4.3125 0.8125 5.75 -0.21875 C 4.894531 -0.507812 4.175781 -1 3.59375 -1.6875 C 3.007812 -2.375 2.71875 -3.113281 2.71875 -3.90625 L 6.265625 -7.90625 C 3.898438 -9.019531 2.71875 -11.203125 2.71875 -14.453125 C 2.71875 -16.753906 3.445312 -18.535156 4.90625 -19.796875 C 6.363281 -21.054688 8.488281 -21.6875 11.28125 -21.6875 C 11.832031 -21.6875 12.539062 -21.628906 13.40625 -21.515625 C 14.28125 -21.398438 14.945312 -21.269531 15.40625 -21.125 L 20.375 -23.609375 L 21.171875 -22.640625 L 18.046875 -19.40625 C 19.046875 -18.289062 19.546875 -16.640625 19.546875 -14.453125 Z M 18.625 2.859375 C 18.625 2.003906 18.359375 1.335938 17.828125 0.859375 C 17.304688 0.378906 16.515625 0.140625 15.453125 0.140625 L 7.28125 0.140625 C 6.65625 0.671875 6.140625 1.351562 5.734375 2.1875 C 5.335938 3.019531 5.140625 3.796875 5.140625 4.515625 C 5.140625 5.804688 5.601562 6.734375 6.53125 7.296875 C 7.46875 7.859375 8.894531 8.140625 10.8125 8.140625 C 13.3125 8.140625 15.238281 7.671875 16.59375 6.734375 C 17.945312 5.804688 18.625 4.515625 18.625 2.859375 Z M 11.140625 -8.78125 C 12.773438 -8.78125 13.929688 -9.25 14.609375 -10.1875 C 15.296875 -11.125 15.640625 -12.546875 15.640625 -14.453125 C 15.640625 -16.441406 15.285156 -17.859375 14.578125 -18.703125 C 13.878906 -19.546875 12.75 -19.96875 11.1875 -19.96875 C 9.613281 -19.96875 8.457031 -19.539062 7.71875 -18.6875 C 6.988281 -17.832031 6.625 -16.421875 6.625 -14.453125 C 6.625 -12.472656 6.984375 -11.03125 7.703125 -10.125 C 8.421875 -9.226562 9.566406 -8.78125 11.140625 -8.78125 Z M 11.140625 -8.78125 "/></g></g></g><g fill="#c4c0bf" fill-opacity="1"><g transform="translate(233.911546, 351.642692)"><g><path d="M 8.46875 -2.0625 C 8.46875 -1.332031 8.207031 -0.695312 7.6875 -0.15625 C 7.175781 0.382812 6.53125 0.65625 5.75 0.65625 C 4.96875 0.65625 4.316406 0.382812 3.796875 -0.15625 C 3.285156 -0.695312 3.03125 -1.332031 3.03125 -2.0625 C 3.03125 -2.832031 3.289062 -3.476562 3.8125 -4 C 4.34375 -4.519531 4.988281 -4.78125 5.75 -4.78125 C 6.507812 -4.78125 7.148438 -4.519531 7.671875 -4 C 8.203125 -3.476562 8.46875 -2.832031 8.46875 -2.0625 Z M 8.46875 -2.0625 "/></g></g></g><g fill="#c4c0bf" fill-opacity="1"><g transform="translate(245.416428, 351.642692)"><g><path d="M 8.46875 -2.0625 C 8.46875 -1.332031 8.207031 -0.695312 7.6875 -0.15625 C 7.175781 0.382812 6.53125 0.65625 5.75 0.65625 C 4.96875 0.65625 4.316406 0.382812 3.796875 -0.15625 C 3.285156 -0.695312 3.03125 -1.332031 3.03125 -2.0625 C 3.03125 -2.832031 3.289062 -3.476562 3.8125 -4 C 4.34375 -4.519531 4.988281 -4.78125 5.75 -4.78125 C 6.507812 -4.78125 7.148438 -4.519531 7.671875 -4 C 8.203125 -3.476562 8.46875 -2.832031 8.46875 -2.0625 Z M 8.46875 -2.0625 "/></g></g></g><g fill="#c4c0bf" fill-opacity="1"><g transform="translate(256.92131, 351.642692)"><g><path d="M 8.46875 -2.0625 C 8.46875 -1.332031 8.207031 -0.695312 7.6875 -0.15625 C 7.175781 0.382812 6.53125 0.65625 5.75 0.65625 C 4.96875 0.65625 4.316406 0.382812 3.796875 -0.15625 C 3.285156 -0.695312 3.03125 -1.332031 3.03125 -2.0625 C 3.03125 -2.832031 3.289062 -3.476562 3.8125 -4 C 4.34375 -4.519531 4.988281 -4.78125 5.75 -4.78125 C 6.507812 -4.78125 7.148438 -4.519531 7.671875 -4 C 8.203125 -3.476562 8.46875 -2.832031 8.46875 -2.0625 Z M 8.46875 -2.0625 "/></g></g></g></svg>