<svg xmlns="http://www.w3.org/2000/svg" xmlns:xlink="http://www.w3.org/1999/xlink" width="500" zoomAndPan="magnify" viewBox="0 0 375 374.999991" height="500" preserveAspectRatio="xMidYMid meet" version="1.0">
<defs>
<g/>
<clipPath id="c9f24b39c2">
<path d="M 156.480469 70.878906 L 270.375 70.878906 L 270.375 184.773438 L 156.480469 184.773438 Z M 156.480469 70.878906 " clip-rule="nonzero"/>
</clipPath>
<clipPath id="eafc9ecf9f">
<path d="M 213.425781 70.878906 C 181.976562 70.878906 156.480469 96.375 156.480469 127.824219 C 156.480469 159.277344 181.976562 184.773438 213.425781 184.773438 C 244.878906 184.773438 270.375 159.277344 270.375 127.824219 C 270.375 96.375 244.878906 70.878906 213.425781 70.878906 Z M 213.425781 70.878906 " clip-rule="nonzero"/>
</clipPath><clipPath id="2ac535a16d"><path d="M 123.25 161.785156 L 193.960938 161.785156 L 193.960938 232.496094 L 123.25 232.496094 Z M 123.25 161.785156 " clip-rule="nonzero"/></clipPath><clipPath id="8266b3280e"><path d="M 158.605469 161.785156 C 139.082031 161.785156 123.25 177.613281 123.25 197.140625 C 123.25 216.664062 139.082031 232.496094 158.605469 232.496094 C 178.132812 232.496094 193.960938 216.664062 193.960938 197.140625 C 193.960938 177.613281 178.132812 161.785156 158.605469 161.785156 Z M 158.605469 161.785156 " clip-rule="nonzero"/>
</clipPath>
<clipPath id="26bcbc3205">
<path d="M 99.71875 41.191406 L 275.21875 41.191406 L 275.21875 248.941406 L 99.71875 248.941406 Z M 99.71875 41.191406 " clip-rule="nonzero"/>
</clipPath>
</defs>
<g clip-path="url(#c9f24b39c2)">
<g clip-path="url(#eafc9ecf9f)">
<path fill="#9c6cfe" d="M 156.480469 70.878906 L 270.375 70.878906 L 270.375 184.773438 L 156.480469 184.773438 Z M 156.480469 70.878906 " fill-opacity="1" fill-rule="nonzero"/>
</g>
</g>
<g clip-path="url(#2ac535a16d)">
<g clip-path="url(#8266b3280e)">
<path fill="#06d2dd" d="M 123.25 161.785156 L 193.960938 161.785156 L 193.960938 232.496094 L 123.25 232.496094 Z M 123.25 161.785156 " fill-opacity="1" fill-rule="nonzero"/>
</g>
</g>
<g clip-path="url(#26bcbc3205)">
<path fill="#352cab" d="M 171.570312 185.359375 C 171.570312 181.839844 168.71875 178.988281 165.199219 178.988281 C 161.683594 178.988281 158.832031 181.839844 158.832031 185.359375 C 158.832031 188.875 161.683594 191.730469 165.199219 191.730469 C 168.71875 191.730469 171.570312 188.875 171.570312 185.359375 Z M 152.597656 185.359375 C 152.597656 181.839844 149.746094 178.988281 146.226562 178.988281 C 142.707031 178.988281 139.855469 181.839844 139.855469 185.359375 C 139.855469 188.875 142.707031 191.730469 146.226562 191.730469 C 149.746094 191.730469 152.597656 188.875 152.597656 185.359375 Z M 133.621094 185.359375 C 133.621094 181.839844 130.769531 178.988281 127.253906 178.988281 C 123.734375 178.988281 120.882812 181.839844 120.882812 185.359375 C 120.882812 188.875 123.734375 191.730469 127.253906 191.730469 C 130.769531 191.730469 133.621094 188.875 133.621094 185.359375 Z M 146.226562 141.28125 C 159.253906 141.28125 169.484375 145.078125 175.816406 152.261719 C 179.191406 156.09375 177.859375 160.074219 175.6875 162.3125 C 172.734375 165.371094 167.308594 166.433594 161.847656 161.929688 C 154.957031 156.25 149.445312 149.207031 145.539062 141.285156 C 145.769531 141.28125 145.996094 141.28125 146.226562 141.28125 Z M 173.71875 248.394531 C 174.511719 248.035156 175.035156 247.257812 175.074219 246.390625 L 176.359375 218.578125 C 183.449219 212.546875 188.507812 204.667969 191.015625 195.730469 C 191.363281 194.496094 190.640625 193.214844 189.40625 192.867188 C 188.179688 192.523438 186.894531 193.242188 186.550781 194.476562 C 184.210938 202.824219 179.394531 210.144531 172.625 215.648438 C 172.113281 216.066406 171.800781 216.683594 171.769531 217.34375 L 170.648438 241.65625 L 150.179688 225.449219 C 149.734375 225.097656 149.175781 224.921875 148.613281 224.953125 C 147.746094 225 146.964844 225.027344 146.226562 225.027344 C 123.140625 225.027344 104.355469 206.242188 104.355469 183.152344 C 104.355469 161.980469 120.152344 144.425781 140.578125 141.660156 C 144.804688 150.84375 151.007812 159.003906 158.898438 165.511719 C 166.601562 171.859375 174.730469 169.976562 179.023438 165.539062 C 183.546875 160.863281 183.65625 154.144531 179.296875 149.195312 C 174.246094 143.46875 164.414062 136.644531 146.226562 136.644531 C 145.3125 136.644531 144.40625 136.671875 143.503906 136.722656 C 140.402344 128.976562 138.761719 120.539062 138.761719 111.8125 C 138.761719 75.453125 168.34375 45.871094 204.703125 45.871094 C 241.058594 45.871094 270.640625 75.453125 270.640625 111.8125 C 270.640625 131.738281 261.757812 150.390625 246.273438 162.988281 C 245.761719 163.402344 245.449219 164.019531 245.417969 164.679688 L 243.570312 204.695312 L 210.023438 178.136719 C 209.019531 177.339844 207.5625 177.511719 206.765625 178.515625 C 205.972656 179.519531 206.140625 180.976562 207.144531 181.773438 L 244.238281 211.140625 C 244.925781 211.683594 245.851562 211.796875 246.640625 211.433594 C 247.433594 211.074219 247.957031 210.300781 247.996094 209.433594 L 250.007812 165.917969 C 266.082031 152.453125 275.28125 132.792969 275.28125 111.8125 C 275.28125 72.894531 243.617188 41.234375 204.703125 41.234375 C 165.785156 41.234375 134.125 72.894531 134.125 111.8125 C 134.125 120.691406 135.714844 129.292969 138.730469 137.25 C 116.632812 140.84375 99.71875 160.058594 99.71875 183.152344 C 99.71875 208.800781 120.582031 229.664062 146.226562 229.664062 C 146.789062 229.664062 147.371094 229.652344 147.984375 229.628906 L 171.316406 248.101562 C 171.734375 248.433594 172.246094 248.605469 172.757812 248.605469 C 173.082031 248.605469 173.410156 248.53125 173.71875 248.394531 Z M 234.539062 109.488281 C 234.539062 105.503906 231.3125 102.277344 227.332031 102.277344 C 223.351562 102.277344 220.125 105.503906 220.125 109.488281 C 220.125 113.46875 223.351562 116.695312 227.332031 116.695312 C 231.3125 116.695312 234.539062 113.46875 234.539062 109.488281 Z M 213.070312 109.488281 C 213.070312 105.503906 209.84375 102.277344 205.859375 102.277344 C 201.878906 102.277344 198.652344 105.503906 198.652344 109.488281 C 198.652344 113.46875 201.878906 116.695312 205.859375 116.695312 C 209.84375 116.695312 213.070312 113.46875 213.070312 109.488281 Z M 184.386719 116.695312 C 180.40625 116.695312 177.179688 113.46875 177.179688 109.488281 C 177.179688 105.503906 180.40625 102.277344 184.386719 102.277344 C 188.367188 102.277344 191.597656 105.503906 191.597656 109.488281 C 191.597656 113.46875 188.367188 116.695312 184.386719 116.695312 " fill-opacity="1" fill-rule="nonzero"/></g>
<g fill="#352cab" fill-opacity="1">
<g transform="translate(61.226099, 317.842304)">
<g>
<path d="M 33.890625 -9.34375 L 13.640625 -9.34375 L 9.78125 0 L -0.5625 0 L 18.875 -43.625 L 28.84375 -43.625 L 48.359375 0 L 37.765625 0 Z M 30.71875 -17.015625 L 23.796875 -33.71875 L 16.890625 -17.015625 Z M 30.71875 -17.015625 "/>
</g>
</g>
</g>
<g fill="#352cab" fill-opacity="1">
<g transform="translate(108.952751, 317.842304)">
<g>
<path d="M 19.5 0.75 C 16.050781 0.75 12.71875 0.28125 9.5 -0.65625 C 6.28125 -1.59375 3.695312 -2.804688 1.75 -4.296875 L 5.171875 -11.90625 C 7.035156 -10.53125 9.253906 -9.425781 11.828125 -8.59375 C 14.410156 -7.769531 16.988281 -7.359375 19.5625 -7.359375 C 22.425781 -7.359375 24.546875 -7.78125 25.921875 -8.625 C 27.296875 -9.476562 27.984375 -10.613281 27.984375 -12.03125 C 27.984375 -13.0625 27.578125 -13.921875 26.765625 -14.609375 C 25.953125 -15.296875 24.910156 -15.847656 23.640625 -16.265625 C 22.378906 -16.679688 20.664062 -17.140625 18.5 -17.640625 C 15.175781 -18.421875 12.457031 -19.207031 10.34375 -20 C 8.226562 -20.789062 6.410156 -22.054688 4.890625 -23.796875 C 3.367188 -25.546875 2.609375 -27.875 2.609375 -30.78125 C 2.609375 -33.3125 3.296875 -35.601562 4.671875 -37.65625 C 6.046875 -39.71875 8.113281 -41.347656 10.875 -42.546875 C 13.632812 -43.753906 17.007812 -44.359375 21 -44.359375 C 23.78125 -44.359375 26.5 -44.023438 29.15625 -43.359375 C 31.820312 -42.703125 34.148438 -41.75 36.140625 -40.5 L 33.03125 -32.84375 C 29 -35.125 24.96875 -36.265625 20.9375 -36.265625 C 18.113281 -36.265625 16.023438 -35.804688 14.671875 -34.890625 C 13.328125 -33.984375 12.65625 -32.78125 12.65625 -31.28125 C 12.65625 -29.78125 13.429688 -28.664062 14.984375 -27.9375 C 16.546875 -27.21875 18.925781 -26.503906 22.125 -25.796875 C 25.445312 -25.003906 28.164062 -24.210938 30.28125 -23.421875 C 32.40625 -22.640625 34.222656 -21.394531 35.734375 -19.6875 C 37.253906 -17.988281 38.015625 -15.6875 38.015625 -12.78125 C 38.015625 -10.28125 37.316406 -8 35.921875 -5.9375 C 34.523438 -3.882812 32.4375 -2.253906 29.65625 -1.046875 C 26.875 0.148438 23.488281 0.75 19.5 0.75 Z M 19.5 0.75 "/>
</g>
</g>
</g>
<g fill="#352cab" fill-opacity="1">
<g transform="translate(148.704191, 317.842304)">
<g>
<path d="M 21.0625 -17.140625 L 15.203125 -11.03125 L 15.203125 0 L 5.171875 0 L 5.171875 -43.625 L 15.203125 -43.625 L 15.203125 -23.25 L 34.515625 -43.625 L 45.734375 -43.625 L 27.671875 -24.171875 L 46.796875 0 L 35.015625 0 Z M 21.0625 -17.140625 "/>
</g>
</g>
</g>
<g fill="#352cab" fill-opacity="1">
<g transform="translate(194.810888, 317.842304)">
<g/>
</g>
</g>
<g fill="#352cab" fill-opacity="1">
<g transform="translate(212.443573, 317.842304)">
<g>
<path d="M 44.859375 0 L 44.796875 -26.171875 L 31.96875 -4.609375 L 27.421875 -4.609375 L 14.640625 -25.609375 L 14.640625 0 L 5.171875 0 L 5.171875 -43.625 L 13.515625 -43.625 L 29.84375 -16.515625 L 45.921875 -43.625 L 54.21875 -43.625 L 54.34375 0 Z M 44.859375 0 "/>
</g>
</g>
</g>
<g fill="#352cab" fill-opacity="1">
<g transform="translate(271.946117, 317.842304)">
<g>
<path d="M 38.953125 -8.09375 L 38.953125 0 L 5.171875 0 L 5.171875 -43.625 L 38.140625 -43.625 L 38.140625 -35.515625 L 15.203125 -35.515625 L 15.203125 -26.046875 L 35.453125 -26.046875 L 35.453125 -18.1875 L 15.203125 -18.1875 L 15.203125 -8.09375 Z M 38.953125 -8.09375 "/>
</g>
</g>
</g>
</svg>