<svg xmlns="http://www.w3.org/2000/svg" xmlns:xlink="http://www.w3.org/1999/xlink" width="500" zoomAndPan="magnify" viewBox="0 0 375 374.999991" height="500" preserveAspectRatio="xMidYMid meet" version="1.0"><defs><g/><clipPath id="b520a2f215"><path d="M 145.957031 61.617188 L 298.496094 61.617188 L 298.496094 214.15625 L 145.957031 214.15625 Z M 145.957031 61.617188 " clip-rule="nonzero"/></clipPath><clipPath id="2525a068f9"><path d="M 222.226562 61.617188 C 180.101562 61.617188 145.957031 95.765625 145.957031 137.886719 C 145.957031 180.011719 180.101562 214.15625 222.226562 214.15625 C 264.347656 214.15625 298.496094 180.011719 298.496094 137.886719 C 298.496094 95.765625 264.347656 61.617188 222.226562 61.617188 Z M 222.226562 61.617188 " clip-rule="nonzero"/></clipPath><clipPath id="019a76fba3"><path d="M 101.449219 183.371094 L 196.15625 183.371094 L 196.15625 278.074219 L 101.449219 278.074219 Z M 101.449219 183.371094 " clip-rule="nonzero"/></clipPath><clipPath id="869eb7fc75"><path d="M 148.800781 183.371094 C 122.648438 183.371094 101.449219 204.570312 101.449219 230.722656 C 101.449219 256.875 122.648438 278.074219 148.800781 278.074219 C 174.953125 278.074219 196.15625 256.875 196.15625 230.722656 C 196.15625 204.570312 174.953125 183.371094 148.800781 183.371094 Z M 148.800781 183.371094 " clip-rule="nonzero"/></clipPath><clipPath id="efc7179162"><path d="M 69.929688 21.851562 L 305.429688 21.851562 L 305.429688 299.351562 L 69.929688 299.351562 Z M 69.929688 21.851562 " clip-rule="nonzero"/></clipPath><clipPath id="7042e84472"><path d="M 78.203125 312.339844 L 314.269531 312.339844 L 314.269531 362.660156 L 78.203125 362.660156 Z M 78.203125 312.339844 " clip-rule="nonzero"/></clipPath><clipPath id="bbff960bc5"><path d="M 95.453125 312.339844 L 296.859375 312.339844 C 301.433594 312.339844 305.820312 314.15625 309.054688 317.394531 C 312.289062 320.628906 314.109375 325.015625 314.109375 329.589844 L 314.109375 345.410156 C 314.109375 349.984375 312.289062 354.371094 309.054688 357.605469 C 305.820312 360.84375 301.433594 362.660156 296.859375 362.660156 L 95.453125 362.660156 C 90.878906 362.660156 86.488281 360.84375 83.253906 357.605469 C 80.019531 354.371094 78.203125 349.984375 78.203125 345.410156 L 78.203125 329.589844 C 78.203125 325.015625 80.019531 320.628906 83.253906 317.394531 C 86.488281 314.15625 90.878906 312.339844 95.453125 312.339844 Z M 95.453125 312.339844 " clip-rule="nonzero"/></clipPath></defs><g clip-path="url(#b520a2f215)"><g clip-path="url(#2525a068f9)"><path fill="#9c6cfe" d="M 145.957031 61.617188 L 298.496094 61.617188 L 298.496094 214.15625 L 145.957031 214.15625 Z M 145.957031 61.617188 " fill-opacity="1" fill-rule="nonzero"/></g></g><g clip-path="url(#019a76fba3)"><g clip-path="url(#869eb7fc75)"><path fill="#06d2dd" d="M 101.449219 183.371094 L 196.15625 183.371094 L 196.15625 278.074219 L 101.449219 278.074219 Z M 101.449219 183.371094 " fill-opacity="1" fill-rule="nonzero"/></g></g><g clip-path="url(#efc7179162)"><path fill="#352cab" d="M 166.167969 214.941406 C 166.167969 210.230469 162.347656 206.410156 157.636719 206.410156 C 152.925781 206.410156 149.105469 210.230469 149.105469 214.941406 C 149.105469 219.65625 152.925781 223.472656 157.636719 223.472656 C 162.347656 223.472656 166.167969 219.65625 166.167969 214.941406 Z M 140.753906 214.941406 C 140.753906 210.230469 136.933594 206.410156 132.222656 206.410156 C 127.511719 206.410156 123.691406 210.230469 123.691406 214.941406 C 123.691406 219.65625 127.511719 223.472656 132.222656 223.472656 C 136.933594 223.472656 140.753906 219.65625 140.753906 214.941406 Z M 115.339844 214.941406 C 115.339844 210.230469 111.519531 206.410156 106.808594 206.410156 C 102.097656 206.410156 98.277344 210.230469 98.277344 214.941406 C 98.277344 219.65625 102.097656 223.472656 106.808594 223.472656 C 111.519531 223.472656 115.339844 219.65625 115.339844 214.941406 Z M 132.222656 155.910156 C 149.667969 155.910156 163.371094 160.992188 171.851562 170.613281 C 176.375 175.746094 174.585938 181.074219 171.683594 184.078125 C 167.726562 188.167969 160.457031 189.59375 153.144531 183.5625 C 143.914062 175.953125 136.53125 166.523438 131.300781 155.914062 C 131.609375 155.910156 131.914062 155.910156 132.222656 155.910156 Z M 169.042969 299.371094 C 170.105469 298.886719 170.804688 297.847656 170.859375 296.683594 L 172.578125 259.4375 C 182.078125 251.355469 188.851562 240.804688 192.210938 228.832031 C 192.675781 227.179688 191.710938 225.464844 190.058594 225 C 188.410156 224.539062 186.691406 225.5 186.230469 227.152344 C 183.09375 238.332031 176.644531 248.140625 167.578125 255.511719 C 166.894531 256.070312 166.476562 256.898438 166.433594 257.78125 L 164.933594 290.34375 L 137.515625 268.640625 C 136.921875 268.167969 136.171875 267.929688 135.417969 267.972656 C 134.257812 268.039062 133.210938 268.070312 132.222656 268.070312 C 101.296875 268.070312 76.140625 242.914062 76.140625 211.988281 C 76.140625 183.632812 97.296875 160.121094 124.65625 156.414062 C 130.316406 168.714844 138.625 179.644531 149.191406 188.359375 C 159.507812 196.863281 170.394531 194.34375 176.148438 188.398438 C 182.203125 182.136719 182.355469 173.136719 176.511719 166.507812 C 169.75 158.835938 156.582031 149.695312 132.222656 149.695312 C 130.996094 149.695312 129.78125 149.730469 128.574219 149.800781 C 124.421875 139.429688 122.222656 128.128906 122.222656 116.4375 C 122.222656 67.738281 161.84375 28.121094 210.539062 28.121094 C 259.238281 28.121094 298.855469 67.738281 298.855469 116.4375 C 298.855469 143.125 286.960938 168.109375 266.21875 184.976562 C 265.535156 185.535156 265.117188 186.363281 265.074219 187.246094 L 262.601562 240.84375 L 217.667969 205.269531 C 216.324219 204.203125 214.371094 204.433594 213.304688 205.773438 C 212.242188 207.121094 212.46875 209.074219 213.8125 210.140625 L 263.496094 249.472656 C 264.414062 250.199219 265.652344 250.351562 266.714844 249.867188 C 267.773438 249.382812 268.476562 248.347656 268.53125 247.183594 L 271.21875 188.90625 C 292.753906 170.871094 305.070312 144.539062 305.070312 116.4375 C 305.070312 64.3125 262.664062 21.90625 210.539062 21.90625 C 158.414062 21.90625 116.011719 64.3125 116.011719 116.4375 C 116.011719 128.332031 118.144531 139.851562 122.179688 150.503906 C 92.585938 155.320312 69.929688 181.058594 69.929688 211.988281 C 69.929688 246.339844 97.875 274.285156 132.222656 274.285156 C 132.976562 274.285156 133.753906 274.265625 134.574219 274.234375 L 165.828125 298.976562 C 166.386719 299.421875 167.070312 299.652344 167.757812 299.652344 C 168.191406 299.652344 168.632812 299.554688 169.042969 299.371094 Z M 250.507812 113.320312 C 250.507812 107.988281 246.183594 103.667969 240.851562 103.667969 C 235.519531 103.667969 231.199219 107.988281 231.199219 113.320312 C 231.199219 118.65625 235.519531 122.976562 240.851562 122.976562 C 246.183594 122.976562 250.507812 118.65625 250.507812 113.320312 Z M 221.75 113.320312 C 221.75 107.988281 217.425781 103.667969 212.09375 103.667969 C 206.761719 103.667969 202.4375 107.988281 202.4375 113.320312 C 202.4375 118.65625 206.761719 122.976562 212.09375 122.976562 C 217.425781 122.976562 221.75 118.65625 221.75 113.320312 Z M 183.332031 122.976562 C 178.003906 122.976562 173.679688 118.65625 173.679688 113.320312 C 173.679688 107.988281 178.003906 103.667969 183.332031 103.667969 C 188.664062 103.667969 192.988281 107.988281 192.988281 113.320312 C 192.988281 118.65625 188.664062 122.976562 183.332031 122.976562 " fill-opacity="1" fill-rule="nonzero"/></g><g clip-path="url(#7042e84472)"><g clip-path="url(#bbff960bc5)"><path fill="#9c6cfe" d="M 78.203125 312.339844 L 314.074219 312.339844 L 314.074219 362.660156 L 78.203125 362.660156 Z M 78.203125 312.339844 " fill-opacity="1" fill-rule="nonzero"/></g></g><g fill="#352cab" fill-opacity="1"><g transform="translate(150.91742, 345.340525)"><g><path d="M 6.96875 0.21875 C 5.875 0.21875 4.898438 0.0859375 4.046875 -0.171875 C 3.203125 -0.441406 2.492188 -0.796875 1.921875 -1.234375 C 1.359375 -1.671875 0.929688 -2.148438 0.640625 -2.671875 L 2.34375 -4.765625 L 2.609375 -4.765625 C 3.078125 -4.054688 3.675781 -3.492188 4.40625 -3.078125 C 5.132812 -2.660156 5.988281 -2.453125 6.96875 -2.453125 C 7.789062 -2.453125 8.410156 -2.628906 8.828125 -2.984375 C 9.253906 -3.335938 9.46875 -3.820312 9.46875 -4.4375 C 9.46875 -4.8125 9.398438 -5.125 9.265625 -5.375 C 9.128906 -5.625 8.90625 -5.835938 8.59375 -6.015625 C 8.28125 -6.191406 7.851562 -6.347656 7.3125 -6.484375 L 5.296875 -6.9375 C 3.890625 -7.257812 2.835938 -7.796875 2.140625 -8.546875 C 1.453125 -9.296875 1.109375 -10.269531 1.109375 -11.46875 C 1.109375 -12.351562 1.328125 -13.128906 1.765625 -13.796875 C 2.210938 -14.472656 2.859375 -15 3.703125 -15.375 C 4.554688 -15.75 5.570312 -15.9375 6.75 -15.9375 C 7.96875 -15.9375 9.003906 -15.773438 9.859375 -15.453125 C 10.722656 -15.128906 11.453125 -14.640625 12.046875 -13.984375 L 10.515625 -11.875 L 10.25 -11.875 C 9.800781 -12.34375 9.289062 -12.691406 8.71875 -12.921875 C 8.144531 -13.160156 7.488281 -13.28125 6.75 -13.28125 C 5.90625 -13.28125 5.257812 -13.128906 4.8125 -12.828125 C 4.363281 -12.523438 4.140625 -12.109375 4.140625 -11.578125 C 4.140625 -11.085938 4.296875 -10.691406 4.609375 -10.390625 C 4.921875 -10.097656 5.460938 -9.875 6.234375 -9.71875 L 8.296875 -9.28125 C 9.816406 -8.957031 10.921875 -8.410156 11.609375 -7.640625 C 12.296875 -6.867188 12.640625 -5.863281 12.640625 -4.625 C 12.640625 -3.644531 12.425781 -2.789062 12 -2.0625 C 11.582031 -1.34375 10.945312 -0.78125 10.09375 -0.375 C 9.238281 0.0195312 8.195312 0.21875 6.96875 0.21875 Z M 6.96875 0.21875 "/></g></g></g><g fill="#352cab" fill-opacity="1"><g transform="translate(164.407211, 345.340525)"><g><path d="M 5.140625 0 L 2.046875 0 L 2.046875 -15.703125 L 5.140625 -15.703125 Z M 5.140625 0 "/></g></g></g><g fill="#352cab" fill-opacity="1"><g transform="translate(171.603198, 345.340525)"><g><path d="M 7.625 0.21875 C 6.3125 0.21875 5.175781 -0.078125 4.21875 -0.671875 C 3.269531 -1.265625 2.535156 -2.164062 2.015625 -3.375 C 1.492188 -4.582031 1.234375 -6.078125 1.234375 -7.859375 C 1.234375 -9.640625 1.546875 -11.132812 2.171875 -12.34375 C 2.796875 -13.550781 3.660156 -14.453125 4.765625 -15.046875 C 5.867188 -15.640625 7.148438 -15.9375 8.609375 -15.9375 C 10.117188 -15.9375 11.398438 -15.65625 12.453125 -15.09375 C 13.515625 -14.53125 14.265625 -13.695312 14.703125 -12.59375 L 12.421875 -11.21875 L 12.15625 -11.234375 C 11.832031 -11.941406 11.378906 -12.453125 10.796875 -12.765625 C 10.210938 -13.085938 9.484375 -13.25 8.609375 -13.25 C 7.253906 -13.25 6.21875 -12.820312 5.5 -11.96875 C 4.789062 -11.113281 4.4375 -9.742188 4.4375 -7.859375 C 4.4375 -5.953125 4.769531 -4.566406 5.4375 -3.703125 C 6.113281 -2.847656 7.101562 -2.421875 8.40625 -2.421875 C 9.539062 -2.421875 10.375 -2.675781 10.90625 -3.1875 C 11.445312 -3.695312 11.71875 -4.457031 11.71875 -5.46875 L 11.71875 -6.140625 L 8 -6.140625 L 8 -8.671875 L 14.796875 -8.671875 L 14.796875 0 L 11.84375 0 L 11.84375 -2.109375 L 11.609375 -2.140625 C 11.285156 -1.390625 10.796875 -0.804688 10.140625 -0.390625 C 9.484375 0.015625 8.644531 0.21875 7.625 0.21875 Z M 7.625 0.21875 "/></g></g></g><g fill="#352cab" fill-opacity="1"><g transform="translate(187.98213, 345.340525)"><g><path d="M 5.046875 0 L 2.046875 0 L 2.046875 -15.703125 L 5.59375 -15.703125 L 11.90625 -5.59375 L 12.1875 -5.625 L 12.1875 -15.703125 L 15.171875 -15.703125 L 15.171875 0 L 11.984375 0 L 5.3125 -10.8125 L 5.046875 -10.765625 Z M 5.046875 0 "/></g></g></g><g fill="#352cab" fill-opacity="1"><g transform="translate(205.198803, 345.340525)"><g/></g></g><g fill="#352cab" fill-opacity="1"><g transform="translate(210.386364, 345.340525)"><g><path d="M 8.328125 0.21875 C 6.160156 0.21875 4.550781 -0.289062 3.5 -1.3125 C 2.457031 -2.34375 1.9375 -3.867188 1.9375 -5.890625 L 1.9375 -15.703125 L 4.984375 -15.703125 L 4.984375 -5.90625 C 4.984375 -4.757812 5.257812 -3.898438 5.8125 -3.328125 C 6.363281 -2.753906 7.203125 -2.46875 8.328125 -2.46875 C 10.554688 -2.46875 11.671875 -3.613281 11.671875 -5.90625 L 11.671875 -15.703125 L 14.703125 -15.703125 L 14.703125 -5.890625 C 14.703125 -3.867188 14.175781 -2.34375 13.125 -1.3125 C 12.082031 -0.289062 10.484375 0.21875 8.328125 0.21875 Z M 8.328125 0.21875 "/></g></g></g><g fill="#352cab" fill-opacity="1"><g transform="translate(227.033797, 345.340525)"><g><path d="M 8.109375 -15.703125 C 9.234375 -15.703125 10.191406 -15.492188 10.984375 -15.078125 C 11.785156 -14.671875 12.390625 -14.097656 12.796875 -13.359375 C 13.210938 -12.617188 13.421875 -11.757812 13.421875 -10.78125 C 13.421875 -9.789062 13.210938 -8.925781 12.796875 -8.1875 C 12.390625 -7.457031 11.785156 -6.882812 10.984375 -6.46875 C 10.191406 -6.0625 9.234375 -5.859375 8.109375 -5.859375 L 5.140625 -5.859375 L 5.140625 0 L 2.046875 0 L 2.046875 -15.703125 Z M 7.703125 -8.3125 C 9.429688 -8.3125 10.296875 -9.132812 10.296875 -10.78125 C 10.296875 -12.425781 9.429688 -13.25 7.703125 -13.25 L 5.140625 -13.25 L 5.140625 -8.3125 Z M 7.703125 -8.3125 "/></g></g></g></svg>